<svg width="303" height="256" viewBox="0 0 303 256" fill="none" xmlns="http://www.w3.org/2000/svg">
<rect width="303" height="256" fill="#D9D9D9"/>
<path d="M96 149.75L125.367 120.516C126.556 119.332 127.968 118.393 129.522 117.752C131.076 117.111 132.741 116.781 134.423 116.781C136.105 116.781 137.77 117.111 139.324 117.752C140.878 118.393 142.29 119.332 143.48 120.516L172.846 149.75M164.308 141.25L172.328 133.266C173.517 132.082 174.929 131.143 176.483 130.502C178.037 129.861 179.703 129.531 181.385 129.531C183.067 129.531 184.732 129.861 186.286 130.502C187.84 131.143 189.252 132.082 190.441 133.266L207 149.75M104.538 171H198.462C200.726 171 202.898 170.104 204.499 168.51C206.1 166.916 207 164.754 207 162.5V94.5C207 92.2457 206.1 90.0837 204.499 88.4896C202.898 86.8955 200.726 86 198.462 86H104.538C102.274 86 100.102 86.8955 98.5009 88.4896C96.8996 90.0837 96 92.2457 96 94.5V162.5C96 164.754 96.8996 166.916 98.5009 168.51C100.102 170.104 102.274 171 104.538 171ZM164.308 107.25H164.353V107.295H164.308V107.25ZM166.442 107.25C166.442 107.814 166.217 108.354 165.817 108.753C165.417 109.151 164.874 109.375 164.308 109.375C163.742 109.375 163.199 109.151 162.798 108.753C162.398 108.354 162.173 107.814 162.173 107.25C162.173 106.686 162.398 106.146 162.798 105.747C163.199 105.349 163.742 105.125 164.308 105.125C164.874 105.125 165.417 105.349 165.817 105.747C166.217 106.146 166.442 106.686 166.442 107.25Z" stroke="#7B7B7B" stroke-width="4" stroke-linecap="round" stroke-linejoin="round"/>
</svg>
